# xmcd
#
# Track frame offsets:
#	150
#	29437
#	50895
#	81962
#	97988
#	119205
#	135633
#	155612
#	180433
#	212086
#	241604
#
# Disc length: 3614 seconds
#
# Revision: 7
# Processed by: cddbd v1.5.2PL0 Copyright (c) Steve Scherf et al.
# Submitted via: audiograbber 1.83.01
#
DISCID=960e1c0b
DTITLE=Richard Galliano - Passatori
DYEAR=1999
DGENRE=Jazz
TTITLE0=Opale Concerto - Premier Mouvement
TTITLE1=Opale Concerto - Deuxieme Mouvement
TTITLE2=Opale Concerto - Troisieme Mouvement
TTITLE3=Oblivion
TTITLE4=San Peyre
TTITLE5=La Valse a Margaux
TTITLE6=Melodicelli
TTITLE7=Habanerando
TTITLE8=Concerto pour Bandoneon - Premier Mouvement
TTITLE9=Concerto pour Bandoneon - Deuxieme Mouvement
TTITLE10=Concerto pour Bandoneon - Troisieme Mouvement
EXTD=Compose, orchestre, dirige par Richard Galliano,\nsauf 4, 9, 10 et 11orche
EXTD=stre par Astor Piazzolla\nProduit par Francis Dreyfus\n\n3 460503660120 (P
EXTD=)+(C) 1999 Disques Dreyfus YEAR: 1999 ID3G: 8
EXTT0=
EXTT1=
EXTT2=
EXTT3=
EXTT4=
EXTT5=
EXTT6=
EXTT7=
EXTT8=
EXTT9=
EXTT10=
PLAYORDER=
